<?xml version="1.0" encoding="UTF-8" standalone="no"?>
<!-- Created with Inkscape (http://www.inkscape.org/) -->

<svg
   width="210mm"
   height="297mm"
   viewBox="0 0 210 297"
   version="1.1"
   id="svg1"
   inkscape:version="1.4.2 (f4327f4, 2025-05-13)"
   sodipodi:docname="auto.svg"
   xmlns:inkscape="http://www.inkscape.org/namespaces/inkscape"
   xmlns:sodipodi="http://sodipodi.sourceforge.net/DTD/sodipodi-0.dtd"
   xmlns="http://www.w3.org/2000/svg"
   xmlns:svg="http://www.w3.org/2000/svg">
  <sodipodi:namedview
     id="namedview1"
     pagecolor="#ffffff"
     bordercolor="#000000"
     borderopacity="0.25"
     inkscape:showpageshadow="2"
     inkscape:pageopacity="0.0"
     inkscape:pagecheckerboard="0"
     inkscape:deskcolor="#d1d1d1"
     inkscape:document-units="mm"
     inkscape:zoom="1.4520903"
     inkscape:cx="307.83209"
     inkscape:cy="372.22202"
     inkscape:window-width="1920"
     inkscape:window-height="1017"
     inkscape:window-x="-8"
     inkscape:window-y="-8"
     inkscape:window-maximized="1"
     inkscape:current-layer="svg1" />
  <defs
     id="defs1" />
  <rect
     style="fill:#000000;fill-opacity:1;stroke:none;stroke-width:4.23201"
     id="rect22"
     width="5.1018405"
     height="13.301227"
     x="106.95644"
     y="88.553368" />
  <rect
     style="fill:#000000;fill-opacity:1;stroke:none;stroke-width:4.23201"
     id="rect23"
     width="5.1018405"
     height="13.301227"
     x="129.55031"
     y="88.371162" />
  <rect
     style="fill:#000000;fill-opacity:1;stroke:none;stroke-width:4.2458"
     id="rect20"
     width="5.8471074"
     height="12.258843"
     x="145.35222"
     y="39.113476"
     transform="matrix(0.84743896,0.53089283,-0.89656637,0.4429094,0,0)" />
  <rect
     style="fill:#000000;fill-opacity:1;stroke:none;stroke-width:4.23201"
     id="rect21"
     width="4.1907973"
     height="11.114723"
     x="28.476332"
     y="124.43502"
     transform="rotate(-30.051685)" />
  <g
     inkscape:label="Réteg 1"
     inkscape:groupmode="layer"
     id="layer1">
    <path
       id="rect1"
       style="fill:#800000;stroke:none;stroke-width:4.23201"
       d="M 119.68003 79.699528 C 113.33842 79.599648 106.63825 79.918101 99.278178 81.006425 C 92.646909 82.604811 91.507255 83.358339 91.104517 83.99849 L 78.093941 98.063265 C 74.597156 98.002785 58.028856 99.157055 46.645215 103.85878 L 38.263814 114.42712 L 38.263814 130.82561 L 55.523226 130.80287 A 12.845705 12.845705 0 0 1 53.56934 123.99295 A 12.845705 12.845705 0 0 1 66.415068 111.14722 A 12.845705 12.845705 0 0 1 79.260795 123.99295 A 12.845705 12.845705 0 0 1 77.324996 130.77445 L 141.84561 130.69021 A 12.845705 12.845705 0 0 1 138.91142 122.5181 A 12.845705 12.845705 0 0 1 151.75663 109.67238 A 12.845705 12.845705 0 0 1 164.60236 122.5181 A 12.845705 12.845705 0 0 1 162.15858 130.05614 L 179.29345 128.63918 L 181.02409 122.80852 L 178.19998 118.07083 C 177.48951 113.45123 178.99581 108.38834 176.01355 104.2231 C 176.59286 101.62049 167.3834 100.52383 155.4241 99.850236 L 137.93215 80.901005 C 132.00492 80.317675 126.02165 79.799408 119.68003 79.699528 z M 114.639 82.011015 L 135.41086 82.922587 L 136.14001 98.410014 L 115.18573 98.227596 L 114.639 82.011015 z M 112.6045 82.540181 L 112.96933 98.028125 L 81.447742 98.757279 L 94.202002 83.997974 L 112.6045 82.540181 z M 137.20299 83.816073 L 143.03365 89.646724 L 151.23315 98.574862 L 138.11405 98.756763 L 137.20299 83.816073 z " />
    <circle
       style="fill:#000000;stroke:none;stroke-width:3.51167"
       id="circle3"
       cx="151.75688"
       cy="122.51796"
       r="10.659202" />
    <circle
       style="fill:#000000;stroke:none;stroke-width:3.51167"
       id="circle3-2"
       cx="66.386452"
       cy="124.00069"
       r="10.659202" />
    <circle
       style="fill:#ac9393;stroke:none;stroke-width:2.85136"
       id="circle4"
       cx="66.386452"
       cy="124.00069"
       r="8.6549072" />
    <circle
       style="fill:#ac9393;stroke:none;stroke-width:2.91138"
       id="circle5"
       cx="151.75688"
       cy="122.51796"
       r="8.8371153" />
    <circle
       style="fill:#483737;stroke:none;stroke-width:1.15376"
       id="circle6"
       cx="66.386452"
       cy="124.00069"
       r="3.5020645" />
    <circle
       style="fill:#483737;stroke:none;stroke-width:1.17804"
       id="circle7"
       cx="151.75688"
       cy="122.51796"
       r="3.5757918" />
    <ellipse
       style="fill:#fdffff;fill-opacity:1;stroke:none;stroke-width:4.23201"
       id="path18"
       cx="99.24958"
       cy="69.61129"
       rx="3.3476036"
       ry="4.3489771"
       transform="rotate(31.541961)" />
    <path
       style="fill:#ff0000;fill-opacity:1;stroke:none;stroke-width:4.23201"
       id="path19"
       sodipodi:type="arc"
       sodipodi:cx="-171.02058"
       sodipodi:cy="-116.71305"
       sodipodi:rx="5.3501921"
       sodipodi:ry="4.314631"
       sodipodi:start="0"
       sodipodi:end="1.5330143"
       sodipodi:arc-type="slice"
       d="m -165.67039,-116.71305 a 5.3501921,4.314631 0 0 1 -5.1481,4.31155 l -0.20209,-4.31155 z"
       transform="rotate(177.5139)" />
    <path
       id="path20"
       style="fill:#ffff00;stroke-width:2.43145"
       inkscape:transform-center-y="0.24061639"
       d="m 90.691204,124.63143 c -2.38322,-0.0749 1.327415,-6.71632 1.327415,-6.71632 0,0 -6.261028,6.88589 -7.981483,5.5732 -1.768586,-1.34941 8.247872,-7.35391 8.247872,-7.35391 0,0 -11.69675,3.00085 -12.014279,1.06254 -0.32641,-1.99255 5.912634,-2.23387 6.413906,-4.2004 0.487631,-1.91302 -5.738378,-1.00403 -4.504404,-2.66101 1.268495,-1.70334 6.882958,1.64706 6.882958,1.64706 0,0 -2.399112,-5.26765 -0.191026,-5.86798 2.269859,-0.61712 2.30757,8.64667 2.30757,8.64667 0,0 3.886554,-8.98931 6.035564,-8.25208 2.209133,0.75785 -3.408432,4.74982 -1.639846,6.09923 1.720456,1.3127 6.645949,-3.00359 7.730329,-1.27377 1.11473,1.77821 -9.209523,2.11403 -8.894301,4.10785 0.291016,1.84071 9.991501,0.97685 9.540381,2.79446 -0.466,1.87761 -6.793801,0.53394 -6.793801,0.53394 0,0 2.224729,1.75821 0.393244,2.95929 -1.882719,1.2347 -3.748158,-1.70655 -3.748158,-1.70655 0,0 -0.793579,4.68062 -3.111941,4.60778 z m 28.339266,-2.82425 c -2.38322,-0.0749 1.32742,-6.71633 1.32742,-6.71633 0,0 -4.32321,3.32864 -6.04367,2.01596 -1.76859,-1.34942 6.31006,-3.79667 6.31006,-3.79667 0,0 -7.70714,2.32786 -8.02467,0.38954 -0.3264,-1.99253 3.74685,-0.0226 4.24812,-1.98913 0.48763,-1.91302 -7.5622,-2.5423 -6.32823,-4.19928 1.26849,-1.70333 4.60317,0.49336 4.60317,0.49336 0,0 -0.11933,-4.11395 2.08876,-4.71428 2.26985,-0.61712 2.30757,8.64667 2.30757,8.64667 0,0 3.88655,-8.9893 6.03556,-8.25208 2.20913,0.75785 -6.25816,6.86494 -4.48957,8.21436 1.72045,1.31268 9.49567,-5.11872 10.58006,-3.38889 1.11473,1.77821 -4.42198,1.63331 -4.10676,3.62713 0.29102,1.84072 5.20395,1.45756 4.75283,3.27517 -0.466,1.8776 -10.89741,-2.06189 -10.89741,-2.06189 0,0 4.96047,7.62285 3.12899,8.82395 -1.88272,1.23469 -2.38029,-4.97538 -2.38029,-4.97538 0,0 -0.79358,4.68062 -3.11194,4.60779 z"
       sodipodi:nodetypes="scscssscscssssscscsscscssscscssssscscs"
       inkscape:transform-center-x="1.2108136e-06" />
  </g>
</svg>
