<?xml version="1.0" encoding="UTF-8" standalone="no"?>
<!-- Created with Inkscape (http://www.inkscape.org/) -->

<svg
   width="210mm"
   height="297mm"
   viewBox="0 0 210 297"
   version="1.1"
   id="svg1"
   inkscape:version="1.4.2 (f4327f4, 2025-05-13)"
   sodipodi:docname="olimpia.svg"
   xmlns:inkscape="http://www.inkscape.org/namespaces/inkscape"
   xmlns:sodipodi="http://sodipodi.sourceforge.net/DTD/sodipodi-0.dtd"
   xmlns="http://www.w3.org/2000/svg"
   xmlns:svg="http://www.w3.org/2000/svg">
  <sodipodi:namedview
     id="namedview1"
     pagecolor="#ffffff"
     bordercolor="#000000"
     borderopacity="0.25"
     inkscape:showpageshadow="2"
     inkscape:pageopacity="0.0"
     inkscape:pagecheckerboard="0"
     inkscape:deskcolor="#d1d1d1"
     inkscape:document-units="mm"
     inkscape:zoom="0.72604517"
     inkscape:cx="3.4433119"
     inkscape:cy="513.05348"
     inkscape:window-width="1920"
     inkscape:window-height="1017"
     inkscape:window-x="1912"
     inkscape:window-y="-8"
     inkscape:window-maximized="1"
     inkscape:current-layer="layer1" />
  <defs
     id="defs1" />
  <g
     inkscape:label="Réteg 1"
     inkscape:groupmode="layer"
     id="layer1">
    <path
       style="fill:none;stroke:#000000;stroke-width:5.66384;stroke-dasharray:none;stroke-opacity:1"
       d="m 106.46158,100.10841 a 27.571958,27.571958 0 0 0 -27.571448,27.57144 27.571958,27.571958 0 0 0 27.571448,27.57248 27.571958,27.571958 0 0 0 27.57248,-27.57248 27.571958,27.571958 0 0 0 -27.57248,-27.57144 z"
       id="path7" />
    <path
       style="fill:none;stroke:#0e81e8;stroke-width:5.66384;stroke-dasharray:none;stroke-opacity:1"
       d="M 39.62328,99.070742 A 27.571958,27.571958 0 0 0 12.051836,126.64322 27.571958,27.571958 0 0 0 39.62328,154.21466 27.571958,27.571958 0 0 0 67.195756,126.64322 27.571958,27.571958 0 0 0 39.62328,99.070742 Z"
       id="path6" />
    <path
       style="fill:none;stroke:#e80e0e;stroke-width:5.66384;stroke-dasharray:none;stroke-opacity:1"
       d="m 174.03988,97.662042 a 27.571958,27.571958 0 0 0 -27.57144,27.572478 27.571958,27.571958 0 0 0 27.57144,27.57144 27.571958,27.571958 0 0 0 27.57248,-27.57144 27.571958,27.571958 0 0 0 -27.57248,-27.572478 z"
       id="path4" />
    <path
       id="path4-1-9"
       style="fill:none;stroke:#ffffff;stroke-width:9.45;stroke-dasharray:none;stroke-opacity:1"
       d="m 141.28546,122.93574 a 27.571958,27.571958 0 0 0 -27.57246,27.57144 27.571958,27.571958 0 0 0 27.57246,27.57248 27.571958,27.571958 0 0 0 27.57144,-27.57248 27.571958,27.571958 0 0 0 -27.57144,-27.57144 z m -67.454264,1.00769 a 27.571958,27.571958 0 0 0 -27.57248,27.57248 27.571958,27.571958 0 0 0 27.57248,27.57144 27.571958,27.571958 0 0 0 27.571444,-27.57144 27.571958,27.571958 0 0 0 -27.571444,-27.57248 z" />
    <path
       style="fill:none;stroke:#ffef00;stroke-width:5.66384;stroke-dasharray:none;stroke-opacity:1"
       d="M 74.061488,123.9116 A 27.571958,27.571958 0 0 0 46.48901,151.48408 27.571958,27.571958 0 0 0 74.061488,179.05553 27.571958,27.571958 0 0 0 101.63293,151.48408 27.571958,27.571958 0 0 0 74.061488,123.9116 Z"
       id="path5" />
    <path
       style="fill:none;stroke:#349606;stroke-width:5.66384;stroke-dasharray:none;stroke-opacity:1"
       d="m 141.51577,122.90391 a 27.571958,27.571958 0 0 0 -27.57248,27.57145 27.571958,27.571958 0 0 0 27.57248,27.57248 27.571958,27.571958 0 0 0 27.57145,-27.57248 27.571958,27.571958 0 0 0 -27.57145,-27.57145 z"
       id="path4-1" />
    <path
       style="fill:none;stroke:none;stroke-width:9.45002;stroke-dasharray:none;stroke-opacity:1"
       d="m 58.288364,118.35393 4.464108,17.40092 9.839268,-3.82639 -0.728838,-15.39662 z"
       id="path8" />
  </g>
</svg>
