<?xml version="1.0" encoding="UTF-8" standalone="no"?>
<!-- Created with Inkscape (http://www.inkscape.org/) -->

<svg
   width="210mm"
   height="297mm"
   viewBox="0 0 210 297"
   version="1.1"
   id="svg1"
   inkscape:version="1.4.2 (f4327f4, 2025-05-13)"
   sodipodi:docname="templom_level.svg"
   xmlns:inkscape="http://www.inkscape.org/namespaces/inkscape"
   xmlns:sodipodi="http://sodipodi.sourceforge.net/DTD/sodipodi-0.dtd"
   xmlns="http://www.w3.org/2000/svg"
   xmlns:svg="http://www.w3.org/2000/svg">
  <sodipodi:namedview
     id="namedview1"
     pagecolor="#ffffff"
     bordercolor="#000000"
     borderopacity="0.25"
     inkscape:showpageshadow="2"
     inkscape:pageopacity="0.0"
     inkscape:pagecheckerboard="0"
     inkscape:deskcolor="#d1d1d1"
     inkscape:document-units="mm"
     inkscape:zoom="0.51339147"
     inkscape:cx="26.295723"
     inkscape:cy="692.45405"
     inkscape:window-width="1920"
     inkscape:window-height="1017"
     inkscape:window-x="1912"
     inkscape:window-y="-8"
     inkscape:window-maximized="1"
     inkscape:current-layer="layer1" />
  <defs
     id="defs1" />
  <g
     inkscape:label="Réteg 1"
     inkscape:groupmode="layer"
     id="layer1">
    <g
       id="g4"
       style="display:inline">
      <rect
         style="fill:#761c76;fill-opacity:1;stroke-width:0.275387"
         id="rect1"
         width="71.061348"
         height="38.992638"
         x="19.678528"
         y="101.30797" />
      <rect
         style="fill:#b48d5d;fill-opacity:1;stroke-width:0.264583"
         id="rect2"
         width="16.398773"
         height="66.688339"
         x="72.154602"
         y="60.493252" />
      <circle
         style="fill:#b45d5d;fill-opacity:1;stroke-width:0.264583"
         id="path2"
         cx="46.280979"
         cy="100.57913"
         r="22.593864" />
      <path
         id="path2-8"
         style="fill:#b45d5d;fill-opacity:1;stroke-width:0.0832156"
         d="m 46.551481,58.545446 a 7.1061344,7.1061344 0 0 0 -6.718969,7.095691 7.1061344,7.1061344 0 0 0 7.106026,7.106026 7.1061344,7.1061344 0 0 0 6.251298,-3.726905 6.204248,6.204248 0 0 1 -3.499528,1.081071 6.204248,6.204248 0 0 1 -6.204273,-6.204272 6.204248,6.204248 0 0 1 3.065446,-5.351611 z" />
      <rect
         style="fill:#b48d5d;fill-opacity:1;stroke-width:0.264583"
         id="rect2-2"
         width="2.4839566"
         height="8.1945648"
         x="45.448547"
         y="71.292648" />
      <path
         sodipodi:type="star"
         style="fill:#82530d;fill-opacity:1;stroke-width:0.264583"
         id="path3"
         inkscape:flatsided="false"
         sodipodi:sides="3"
         sodipodi:cx="70.991348"
         sodipodi:cy="36.075459"
         sodipodi:r1="24.146935"
         sodipodi:r2="12.073468"
         sodipodi:arg1="0.52359878"
         sodipodi:arg2="1.5707963"
         inkscape:rounded="0"
         inkscape:randomized="0"
         d="m 91.903207,48.148926 -20.911858,10e-7 -20.911859,-10e-7 10.455928,-18.110201 10.45593,-18.110201 10.45593,18.1102 z"
         inkscape:transform-center-y="-5.8649458"
         transform="matrix(0.50710865,0,0,0.97154291,43.752204,15.800363)" />
      <path
         id="path2-8-2"
         style="fill:#b45d5d;fill-opacity:1;stroke-width:0.0832156"
         d="m 80.375804,11.960719 a 7.1061344,7.1061344 0 0 0 -6.718969,7.095691 7.1061344,7.1061344 0 0 0 7.106026,7.106026 7.1061344,7.1061344 0 0 0 6.251298,-3.726905 6.204248,6.204248 0 0 1 -3.499528,1.081071 6.204248,6.204248 0 0 1 -6.204273,-6.204272 6.204248,6.204248 0 0 1 3.065446,-5.351611 z" />
      <rect
         style="fill:#b48d5d;fill-opacity:1;stroke-width:0.264583"
         id="rect2-2-6"
         width="2.4839566"
         height="8.1945648"
         x="78.572517"
         y="24.988125" />
    </g>
    <g
       id="g3"
       style="display:inline"
       transform="translate(5.1018405,-36.441718)">
      <rect
         style="fill:#000000;fill-opacity:1;stroke-width:0.275387"
         id="rect1-1"
         width="71.061348"
         height="38.992638"
         x="99.48333"
         y="138.03058" />
      <rect
         style="fill:#000000;fill-opacity:1;stroke-width:0.264583"
         id="rect2-8"
         width="16.398773"
         height="66.688339"
         x="151.95941"
         y="97.215866" />
      <circle
         style="fill:#000000;fill-opacity:1;stroke-width:0.264583"
         id="path2-9"
         cx="126.08578"
         cy="137.30174"
         r="22.593864" />
      <path
         id="path2-8-27"
         style="fill:#000000;fill-opacity:1;stroke-width:0.0832156"
         d="m 126.35629,95.26806 a 7.1061344,7.1061344 0 0 0 -6.71897,7.09569 7.1061344,7.1061344 0 0 0 7.10602,7.10603 7.1061344,7.1061344 0 0 0 6.2513,-3.72691 6.204248,6.204248 0 0 1 -3.49953,1.08107 6.204248,6.204248 0 0 1 -6.20427,-6.20427 6.204248,6.204248 0 0 1 3.06545,-5.35161 z" />
      <rect
         style="fill:#000000;fill-opacity:1;stroke-width:0.264583"
         id="rect2-2-9"
         width="2.4839566"
         height="8.1945648"
         x="125.25335"
         y="108.01526" />
      <path
         sodipodi:type="star"
         style="fill:#000000;fill-opacity:1;stroke-width:0.264583"
         id="path3-5"
         inkscape:flatsided="false"
         sodipodi:sides="3"
         sodipodi:cx="70.991348"
         sodipodi:cy="36.075459"
         sodipodi:r1="24.146935"
         sodipodi:r2="12.073468"
         sodipodi:arg1="0.52359878"
         sodipodi:arg2="1.5707963"
         inkscape:rounded="0"
         inkscape:randomized="0"
         d="m 91.903207,48.148926 -20.911858,10e-7 -20.911859,-10e-7 10.455928,-18.110201 10.45593,-18.110201 10.45593,18.1102 z"
         inkscape:transform-center-y="-5.8649458"
         transform="matrix(0.50710865,0,0,0.97154291,123.55701,52.522977)" />
      <path
         id="path2-8-2-4"
         style="fill:#000000;fill-opacity:1;stroke-width:0.0832156"
         d="m 160.18061,48.683333 a 7.1061344,7.1061344 0 0 0 -6.71897,7.095691 7.1061344,7.1061344 0 0 0 7.10603,7.106026 7.1061344,7.1061344 0 0 0 6.25129,-3.726905 6.204248,6.204248 0 0 1 -3.49952,1.081071 6.204248,6.204248 0 0 1 -6.20428,-6.204272 6.204248,6.204248 0 0 1 3.06545,-5.351611 z" />
      <rect
         style="fill:#000000;fill-opacity:1;stroke-width:0.264583"
         id="rect2-2-6-3"
         width="2.4839566"
         height="8.1945648"
         x="158.37732"
         y="61.710739" />
    </g>
    <path
       id="path4"
       style="fill:#326311;fill-opacity:1;stroke-width:0.264583"
       d="m 77.288435,242.56898 a 19.197298,19.197298 0 0 0 -7.982564,-18.5131 19.197298,19.197298 0 0 0 -20.537457,-0.94142 19.197298,19.197298 0 0 0 7.982549,18.51309 19.197298,19.197298 0 0 0 20.537472,0.94143 z" />
    <path
       id="path4-9"
       style="fill:#63ad30;fill-opacity:1;stroke-width:0.264583"
       d="m 49.227479,218.83216 a 19.197298,19.197298 0 0 0 19.618007,-4.64653 19.197298,19.197298 0 0 0 4.493407,-20.06197 19.197298,19.197298 0 0 0 -19.617992,4.64651 19.197298,19.197298 0 0 0 -4.493422,20.06199 z" />
    <path
       id="path4-9-6"
       style="fill:#63ad30;fill-opacity:1;stroke-width:0.264583"
       d="m 21.93476,247.09954 a 19.197298,19.197298 0 0 0 19.618007,-4.64653 19.197298,19.197298 0 0 0 4.493407,-20.06197 19.197298,19.197298 0 0 0 -19.617992,4.64651 19.197298,19.197298 0 0 0 -4.493422,20.06199 z" />
    <path
       id="path4-7"
       style="fill:#326311;fill-opacity:1;stroke-width:0.264583"
       d="m 46.344695,218.8693 a 19.197298,19.197298 0 0 0 -7.982564,-18.5131 19.197298,19.197298 0 0 0 -20.537457,-0.94142 19.197298,19.197298 0 0 0 7.982549,18.51309 19.197298,19.197298 0 0 0 20.537472,0.94143 z" />
  </g>
</svg>
